<?xml version="1.0" encoding="utf-8"?>
<!-- Generator: Adobe Illustrator 23.1.0, SVG Export Plug-In . SVG Version: 6.00 Build 0)  -->
<svg version="1.1" xmlns="http://www.w3.org/2000/svg" xmlns:xlink="http://www.w3.org/1999/xlink" x="0px" y="0px"
	 viewBox="0 0 500 500" style="enable-background:new 0 0 500 500;" xml:space="preserve">
<style type="text/css">
	.st0{fill:#FFFFFF;}
	.st1{fill:#64B8E6;}
	.st2{fill:url(#SVGID_1_);}
	.st3{fill:url(#SVGID_2_);}
	.st4{display:none;}
	.st5{display:inline;opacity:0.25;fill:#83C6EB;}
	.st6{display:inline;opacity:0.25;fill:#64B8E6;}
	.st7{display:inline;opacity:0.5;fill:#83C6EB;}
	.st8{display:inline;opacity:0.5;}
	.st9{display:inline;opacity:0.75;fill:#83C6EB;}
	.st10{fill:url(#SVGID_3_);}
	.st11{fill:#2B247A;}
	.st12{fill:url(#SVGID_4_);}
	.st13{fill:url(#SVGID_5_);}
	.st14{fill:url(#SVGID_6_);}
	.st15{fill:url(#SVGID_7_);}
	.st16{fill:url(#SVGID_8_);}
	.st17{fill:url(#SVGID_9_);}
	.st18{fill:url(#SVGID_10_);}
	.st19{fill:url(#SVGID_11_);}
	.st20{fill:url(#SVGID_12_);}
	.st21{fill:url(#SVGID_13_);}
	.st22{fill:url(#SVGID_14_);}
	.st23{fill:url(#SVGID_15_);}
	.st24{fill:url(#SVGID_16_);}
	.st25{fill:url(#SVGID_17_);}
	.st26{fill:url(#SVGID_18_);}
	.st27{fill:#DE9E7A;}
	.st28{fill:url(#SVGID_19_);}
	.st29{fill:url(#SVGID_20_);}
	.st30{fill:url(#SVGID_21_);}
	.st31{fill:url(#SVGID_22_);}
	.st32{fill:url(#SVGID_23_);}
	.st33{fill:url(#SVGID_24_);}
	.st34{fill:url(#SVGID_25_);}
	.st35{fill:url(#SVGID_26_);}
	.st36{fill:url(#SVGID_27_);}
	.st37{fill:url(#SVGID_28_);}
	.st38{fill:url(#SVGID_29_);}
	.st39{fill:url(#SVGID_30_);}
	.st40{fill:url(#SVGID_31_);}
	.st41{fill:url(#SVGID_32_);}
	.st42{fill:url(#SVGID_33_);}
	.st43{fill:url(#SVGID_34_);}
	.st44{fill:url(#SVGID_35_);}
	.st45{fill:url(#SVGID_36_);}
	.st46{fill:url(#SVGID_37_);}
	.st47{fill:url(#SVGID_38_);}
	.st48{fill:url(#SVGID_39_);}
	.st49{fill:url(#SVGID_40_);}
	.st50{fill:url(#SVGID_41_);}
</style>
<g id="BACKGROUND">
	<rect class="st0" width="500" height="500"/>
</g>
<g id="OBJECTS">
	<g>
		<path class="st1" d="M435.8,275.4c-0.4,5.8-0.9,11.7-1.6,17.5c-5.1,44.4-18.4,88.9-50.5,123.3c-4,4.3-8.4,8.5-13.6,11.4
			c-13.9,7.7-34.4,3.7-50,3.7H175.7c-18,0-43.6,5.2-58.4-5.5c-11.4-8.3-21.4-17.4-30.1-27.3c-4.1-4.7-7.9-9.5-11.4-14.5
			c-18.3-25.9-29-55.8-34-87.9C36.6,262,37.8,227.4,52,195c9.7-22,25.2-47.7,49.5-58.1c14-6,30-7.6,45.2-7.8
			c19.6-0.2,39.7-1.3,56.6-11.4c19.1-11.4,33.1-28.8,52-40.6c19-12,41.2-19.2,64.4-15.9c32.2,4.6,57.7,28,75.1,53.4
			c26.8,39.1,40,85.2,41.6,131.6C436.7,255.9,436.5,265.7,435.8,275.4z"/>
		<path class="st1" d="M407.7,300.3c-0.4,5-0.8,10-1.4,15.1c-4.4,38.1-15.8,76.3-43.3,105.8c-3.4,3.7-7.2,7.3-11.7,9.8
			c-11.9,6.6-29.6,3.2-42.9,3.2H184.5c-15.4,0-37.4,4.4-50.1-4.7c-9.8-7.1-18.4-14.9-25.8-23.4c-3.5-4-6.8-8.1-9.8-12.4
			c-15.7-22.2-24.9-47.9-29.2-75.5c-4.5-29.4-3.5-59,8.7-86.8c8.3-18.9,21.6-40.9,42.5-49.9c12-5.1,25.7-6.5,38.8-6.7
			c16.8-0.2,34.1-1.1,48.6-9.8c16.4-9.8,28.4-24.7,44.6-34.9c16.3-10.3,35.3-16.5,55.2-13.7c27.6,3.9,49.5,24,64.5,45.8
			c23,33.5,34.3,73.1,35.7,112.9C408.5,283.6,408.3,292,407.7,300.3z"/>
		<linearGradient id="SVGID_1_" gradientUnits="userSpaceOnUse" x1="256.1956" y1="432.6222" x2="256.1956" y2="244.9261">
			<stop  offset="3.251830e-03" style="stop-color:#FFFFFF;stop-opacity:0"/>
			<stop  offset="1" style="stop-color:#FFFFFF"/>
		</linearGradient>
		<path class="st2" d="M435.8,275.4c-3.5,50-15.7,101.9-52.1,140.9c-4,4.3-8.4,8.5-13.6,11.4c-13.9,7.7-34.4,3.7-50,3.7H175.7
			c-18,0-43.6,5.2-58.4-5.5c-16.8-12.2-30.5-26.2-41.5-41.8l29.3-32.2c0,0,57.5,29.6,60,27.2c2.5-2.5,81.2-87.6,81.2-87.6l34.7,43
			l40.5-89.6l62.7,61.1l52-59.9C436.7,255.9,436.5,265.7,435.8,275.4z"/>
		<linearGradient id="SVGID_2_" gradientUnits="userSpaceOnUse" x1="260.745" y1="432.6222" x2="260.745" y2="292.9393">
			<stop  offset="3.251830e-03" style="stop-color:#FFFFFF;stop-opacity:0"/>
			<stop  offset="1" style="stop-color:#FFFFFF"/>
		</linearGradient>
		<path class="st3" d="M434.2,292.9c-5.1,44.4-18.4,88.9-50.5,123.3c-4,4.3-8.4,8.5-13.6,11.4c-13.9,7.7-34.4,3.7-50,3.7H175.7
			c-18,0-43.6,5.2-58.4-5.5c-11.4-8.3-21.4-17.4-30.1-27.3l25.1-12.8c0,0,48.9,32.7,51.4,30.2c2.5-2.5,62-59.9,62-59.9l31.6,16.7
			l63.8-55l63.2,43.8L434.2,292.9z"/>
	</g>
	<g class="st4">
		<rect x="341" y="237.6" class="st5" width="95" height="184.9"/>
		<polygon class="st5" points="293.5,167.5 293.5,149 248.6,149 248.6,167.5 231.8,167.5 231.8,374.6 310.3,374.6 310.3,167.5 		"/>
		<rect x="43.9" y="244.9" class="st6" width="101.1" height="177.5"/>
		<polygon class="st5" points="337.7,167.5 320.9,167.5 320.9,374.6 399.4,374.6 399.4,124.9 		"/>
		<polygon class="st7" points="220.6,150.6 220.6,111.6 202.5,111.6 202.5,76.1 158.4,76.1 158.4,111.6 140.3,111.6 140.3,150.6 
			115.4,150.6 115.4,422.4 245.5,422.4 245.5,150.6 		"/>
		<g class="st8">
			<g>
				<g>
					<rect x="128.2" y="192.8" class="st1" width="13.8" height="10"/>
					<rect x="151.9" y="192.8" class="st1" width="13.8" height="10"/>
					<rect x="175.2" y="192.8" class="st1" width="13.8" height="10"/>
					<rect x="198.9" y="192.8" class="st1" width="13.8" height="10"/>
					<rect x="222.3" y="192.8" class="st1" width="13.8" height="10"/>
				</g>
				<g>
					<rect x="128.2" y="206.3" class="st1" width="13.8" height="10"/>
					<rect x="151.9" y="206.3" class="st1" width="13.8" height="10"/>
					<rect x="175.2" y="206.3" class="st1" width="13.8" height="10"/>
					<rect x="198.9" y="206.3" class="st1" width="13.8" height="10"/>
					<rect x="222.3" y="206.3" class="st1" width="13.8" height="10"/>
				</g>
				<g>
					<rect x="128.2" y="220.4" class="st1" width="13.8" height="10"/>
					<rect x="151.9" y="220.4" class="st1" width="13.8" height="10"/>
					<rect x="175.2" y="220.4" class="st1" width="13.8" height="10"/>
					<rect x="198.9" y="220.4" class="st1" width="13.8" height="10"/>
					<rect x="222.3" y="220.4" class="st1" width="13.8" height="10"/>
				</g>
			</g>
			<g>
				<g>
					<g>
						<g>
							<rect x="220.8" y="200.2" class="st1" width="16.7" height="2.6"/>
						</g>
						<g>
							<rect x="220.8" y="213.9" class="st1" width="16.7" height="2.4"/>
						</g>
						<g>
							<rect x="220.8" y="227.8" class="st1" width="16.7" height="2.6"/>
						</g>
					</g>
				</g>
				<g>
					<g>
						<g>
							<rect x="197.5" y="200.2" class="st1" width="16.7" height="2.6"/>
						</g>
						<g>
							<rect x="197.5" y="213.9" class="st1" width="16.7" height="2.4"/>
						</g>
						<g>
							<rect x="197.5" y="227.8" class="st1" width="16.7" height="2.6"/>
						</g>
					</g>
				</g>
				<g>
					<g>
						<g>
							<rect x="173.8" y="200.2" class="st1" width="16.7" height="2.6"/>
						</g>
						<g>
							<rect x="173.8" y="213.9" class="st1" width="16.7" height="2.4"/>
						</g>
						<g>
							<rect x="173.8" y="227.8" class="st1" width="16.7" height="2.6"/>
						</g>
					</g>
				</g>
				<g>
					<g>
						<g>
							<rect x="150.5" y="200.2" class="st1" width="16.7" height="2.6"/>
						</g>
						<g>
							<rect x="150.5" y="213.9" class="st1" width="16.7" height="2.4"/>
						</g>
						<g>
							<rect x="150.5" y="227.8" class="st1" width="16.7" height="2.6"/>
						</g>
					</g>
				</g>
				<g>
					<g>
						<g>
							<g>
								<rect x="126.8" y="200.2" class="st1" width="16.7" height="2.6"/>
							</g>
						</g>
						<g>
							<g>
								<rect x="126.8" y="213.9" class="st1" width="16.7" height="2.4"/>
							</g>
						</g>
						<g>
							<g>
								<rect x="126.8" y="227.8" class="st1" width="16.7" height="2.6"/>
							</g>
						</g>
					</g>
				</g>
			</g>
			<g>
				<g>
					<rect x="153.2" y="140.2" class="st1" width="12.7" height="9.2"/>
					<rect x="175" y="140.2" class="st1" width="12.7" height="9.2"/>
					<rect x="196.4" y="140.2" class="st1" width="12.7" height="9.2"/>
				</g>
				<g>
					<rect x="153.2" y="152.6" class="st1" width="12.7" height="9.2"/>
					<rect x="175" y="152.6" class="st1" width="12.7" height="9.2"/>
					<rect x="196.4" y="152.6" class="st1" width="12.7" height="9.2"/>
				</g>
				<g>
					<rect x="153.2" y="165.6" class="st1" width="12.7" height="9.2"/>
					<rect x="175" y="165.6" class="st1" width="12.7" height="9.2"/>
					<rect x="196.4" y="165.6" class="st1" width="12.7" height="9.2"/>
				</g>
			</g>
			<g>
				<g>
					<g>
						<g>
							<rect x="195.1" y="147" class="st1" width="15.3" height="2.4"/>
						</g>
						<g>
							<rect x="195.1" y="159.6" class="st1" width="15.3" height="2.2"/>
						</g>
						<g>
							<rect x="195.1" y="172.4" class="st1" width="15.3" height="2.4"/>
						</g>
					</g>
				</g>
				<g>
					<g>
						<g>
							<rect x="173.7" y="147" class="st1" width="15.3" height="2.4"/>
						</g>
						<g>
							<rect x="173.7" y="159.6" class="st1" width="15.3" height="2.2"/>
						</g>
						<g>
							<rect x="173.7" y="172.4" class="st1" width="15.3" height="2.4"/>
						</g>
					</g>
				</g>
				<g>
					<g>
						<g>
							<g>
								<rect x="151.9" y="147" class="st1" width="15.3" height="2.4"/>
							</g>
						</g>
						<g>
							<g>
								<rect x="151.9" y="159.6" class="st1" width="15.3" height="2.2"/>
							</g>
						</g>
						<g>
							<g>
								<rect x="151.9" y="172.4" class="st1" width="15.3" height="2.4"/>
							</g>
						</g>
					</g>
				</g>
			</g>
			<g>
				<g>
					<rect x="128.2" y="238.1" class="st1" width="13.8" height="10"/>
					<rect x="151.9" y="238.1" class="st1" width="13.8" height="10"/>
					<rect x="175.2" y="238.1" class="st1" width="13.8" height="10"/>
					<rect x="198.9" y="238.1" class="st1" width="13.8" height="10"/>
					<rect x="222.3" y="238.1" class="st1" width="13.8" height="10"/>
				</g>
				<g>
					<rect x="128.2" y="251.6" class="st1" width="13.8" height="10"/>
					<rect x="151.9" y="251.6" class="st1" width="13.8" height="10"/>
					<rect x="175.2" y="251.6" class="st1" width="13.8" height="10"/>
					<rect x="198.9" y="251.6" class="st1" width="13.8" height="10"/>
					<rect x="222.3" y="251.6" class="st1" width="13.8" height="10"/>
				</g>
				<g>
					<rect x="128.2" y="265.7" class="st1" width="13.8" height="10"/>
					<rect x="151.9" y="265.7" class="st1" width="13.8" height="10"/>
					<rect x="175.2" y="265.7" class="st1" width="13.8" height="10"/>
					<rect x="198.9" y="265.7" class="st1" width="13.8" height="10"/>
					<rect x="222.3" y="265.7" class="st1" width="13.8" height="10"/>
				</g>
			</g>
			<g>
				<g>
					<g>
						<g>
							<rect x="220.8" y="245.5" class="st1" width="16.7" height="2.6"/>
						</g>
						<g>
							<rect x="220.8" y="259.2" class="st1" width="16.7" height="2.4"/>
						</g>
						<g>
							<rect x="220.8" y="273.1" class="st1" width="16.7" height="2.6"/>
						</g>
					</g>
				</g>
				<g>
					<g>
						<g>
							<rect x="197.5" y="245.5" class="st1" width="16.7" height="2.6"/>
						</g>
						<g>
							<rect x="197.5" y="259.2" class="st1" width="16.7" height="2.4"/>
						</g>
						<g>
							<rect x="197.5" y="273.1" class="st1" width="16.7" height="2.6"/>
						</g>
					</g>
				</g>
				<g>
					<g>
						<g>
							<rect x="173.8" y="245.5" class="st1" width="16.7" height="2.6"/>
						</g>
						<g>
							<rect x="173.8" y="259.2" class="st1" width="16.7" height="2.4"/>
						</g>
						<g>
							<rect x="173.8" y="273.1" class="st1" width="16.7" height="2.6"/>
						</g>
					</g>
				</g>
				<g>
					<g>
						<g>
							<rect x="150.5" y="245.5" class="st1" width="16.7" height="2.6"/>
						</g>
						<g>
							<rect x="150.5" y="259.2" class="st1" width="16.7" height="2.4"/>
						</g>
						<g>
							<rect x="150.5" y="273.1" class="st1" width="16.7" height="2.6"/>
						</g>
					</g>
				</g>
				<g>
					<g>
						<g>
							<g>
								<rect x="126.8" y="245.5" class="st1" width="16.7" height="2.6"/>
							</g>
						</g>
						<g>
							<g>
								<rect x="126.8" y="259.2" class="st1" width="16.7" height="2.4"/>
							</g>
						</g>
						<g>
							<g>
								<rect x="126.8" y="273.1" class="st1" width="16.7" height="2.6"/>
							</g>
						</g>
					</g>
				</g>
			</g>
			<g>
				<g>
					<rect x="128.2" y="283.3" class="st1" width="13.8" height="10"/>
					<rect x="151.9" y="283.3" class="st1" width="13.8" height="10"/>
					<rect x="175.2" y="283.3" class="st1" width="13.8" height="10"/>
					<rect x="198.9" y="283.3" class="st1" width="13.8" height="10"/>
					<rect x="222.3" y="283.3" class="st1" width="13.8" height="10"/>
				</g>
				<g>
					<rect x="128.2" y="296.9" class="st1" width="13.8" height="10"/>
					<rect x="151.9" y="296.9" class="st1" width="13.8" height="10"/>
					<rect x="175.2" y="296.9" class="st1" width="13.8" height="10"/>
					<rect x="198.9" y="296.9" class="st1" width="13.8" height="10"/>
					<rect x="222.3" y="296.9" class="st1" width="13.8" height="10"/>
				</g>
				<g>
					<rect x="128.2" y="311" class="st1" width="13.8" height="10"/>
					<rect x="151.9" y="311" class="st1" width="13.8" height="10"/>
					<rect x="175.2" y="311" class="st1" width="13.8" height="10"/>
					<rect x="198.9" y="311" class="st1" width="13.8" height="10"/>
					<rect x="222.3" y="311" class="st1" width="13.8" height="10"/>
				</g>
			</g>
			<g>
				<g>
					<g>
						<g>
							<rect x="220.8" y="290.8" class="st1" width="16.7" height="2.6"/>
						</g>
						<g>
							<rect x="220.8" y="304.5" class="st1" width="16.7" height="2.4"/>
						</g>
						<g>
							<rect x="220.8" y="318.4" class="st1" width="16.7" height="2.6"/>
						</g>
					</g>
				</g>
				<g>
					<g>
						<g>
							<rect x="197.5" y="290.8" class="st1" width="16.7" height="2.6"/>
						</g>
						<g>
							<rect x="197.5" y="304.5" class="st1" width="16.7" height="2.4"/>
						</g>
						<g>
							<rect x="197.5" y="318.4" class="st1" width="16.7" height="2.6"/>
						</g>
					</g>
				</g>
				<g>
					<g>
						<g>
							<rect x="173.8" y="290.8" class="st1" width="16.7" height="2.6"/>
						</g>
						<g>
							<rect x="173.8" y="304.5" class="st1" width="16.7" height="2.4"/>
						</g>
						<g>
							<rect x="173.8" y="318.4" class="st1" width="16.7" height="2.6"/>
						</g>
					</g>
				</g>
				<g>
					<g>
						<g>
							<rect x="150.5" y="290.8" class="st1" width="16.7" height="2.6"/>
						</g>
						<g>
							<rect x="150.5" y="304.5" class="st1" width="16.7" height="2.4"/>
						</g>
						<g>
							<rect x="150.5" y="318.4" class="st1" width="16.7" height="2.6"/>
						</g>
					</g>
				</g>
				<g>
					<g>
						<g>
							<g>
								<rect x="126.8" y="290.8" class="st1" width="16.7" height="2.6"/>
							</g>
						</g>
						<g>
							<g>
								<rect x="126.8" y="304.5" class="st1" width="16.7" height="2.4"/>
							</g>
						</g>
						<g>
							<g>
								<rect x="126.8" y="318.4" class="st1" width="16.7" height="2.6"/>
							</g>
						</g>
					</g>
				</g>
			</g>
		</g>
		<rect x="267.3" y="193.2" class="st7" width="78.2" height="229.3"/>
		<g class="st8">
			<g>
				<g>
					<g>
						<g>
							<rect x="278.3" y="207.9" class="st1" width="15.2" height="6.4"/>
						</g>
						<g>
							<rect x="278.3" y="223.3" class="st1" width="15.2" height="6.4"/>
						</g>
						<g>
							<rect x="278.3" y="238.8" class="st1" width="15.2" height="6.4"/>
						</g>
						<g>
							<rect x="278.3" y="254.2" class="st1" width="15.2" height="6.4"/>
						</g>
						<g>
							<rect x="278.3" y="269.6" class="st1" width="15.2" height="6.4"/>
						</g>
						<g>
							<rect x="278.3" y="285" class="st1" width="15.2" height="6.4"/>
						</g>
						<g>
							<rect x="278.3" y="300.4" class="st1" width="15.2" height="6.4"/>
						</g>
						<g>
							<rect x="278.3" y="315.8" class="st1" width="15.2" height="6.4"/>
						</g>
						<g>
							<rect x="278.3" y="331.3" class="st1" width="15.2" height="6.4"/>
						</g>
					</g>
					<g>
						<g>
							<rect x="300" y="207.9" class="st1" width="15.2" height="6.4"/>
						</g>
						<g>
							<rect x="300" y="223.3" class="st1" width="15.2" height="6.4"/>
						</g>
						<g>
							<rect x="300" y="238.8" class="st1" width="15.2" height="6.4"/>
						</g>
						<g>
							<rect x="300" y="254.2" class="st1" width="15.2" height="6.4"/>
						</g>
						<g>
							<rect x="300" y="269.6" class="st1" width="15.2" height="6.4"/>
						</g>
						<g>
							<rect x="300" y="285" class="st1" width="15.2" height="6.4"/>
						</g>
						<g>
							<rect x="300" y="300.4" class="st1" width="15.2" height="6.4"/>
						</g>
						<g>
							<rect x="300" y="315.8" class="st1" width="15.2" height="6.4"/>
						</g>
						<g>
							<rect x="300" y="331.3" class="st1" width="15.2" height="6.4"/>
						</g>
					</g>
					<g>
						<g>
							<rect x="321.7" y="207.9" class="st1" width="15.2" height="6.4"/>
						</g>
						<g>
							<rect x="321.7" y="223.3" class="st1" width="15.2" height="6.4"/>
						</g>
						<g>
							<rect x="321.7" y="238.8" class="st1" width="15.2" height="6.4"/>
						</g>
						<g>
							<rect x="321.7" y="254.2" class="st1" width="15.2" height="6.4"/>
						</g>
						<g>
							<rect x="321.7" y="269.6" class="st1" width="15.2" height="6.4"/>
						</g>
						<g>
							<rect x="321.7" y="285" class="st1" width="15.2" height="6.4"/>
						</g>
						<g>
							<rect x="321.7" y="300.4" class="st1" width="15.2" height="6.4"/>
						</g>
						<g>
							<rect x="321.7" y="315.8" class="st1" width="15.2" height="6.4"/>
						</g>
						<g>
							<rect x="321.7" y="331.3" class="st1" width="15.2" height="6.4"/>
						</g>
					</g>
				</g>
				<g>
					<g>
						<g>
							<g>
								<rect x="278.3" y="207.9" class="st1" width="3.7" height="6.4"/>
							</g>
							<g>
								<rect x="278.3" y="223.3" class="st1" width="3.7" height="6.4"/>
							</g>
							<g>
								<rect x="278.3" y="238.8" class="st1" width="3.7" height="6.4"/>
							</g>
							<g>
								<rect x="278.3" y="254.2" class="st1" width="3.7" height="6.4"/>
							</g>
							<g>
								<rect x="278.3" y="269.6" class="st1" width="3.7" height="6.4"/>
							</g>
							<g>
								<rect x="278.3" y="285" class="st1" width="3.7" height="6.4"/>
							</g>
							<g>
								<rect x="278.3" y="300.4" class="st1" width="3.7" height="6.4"/>
							</g>
							<g>
								<rect x="278.3" y="315.8" class="st1" width="3.7" height="6.4"/>
							</g>
							<g>
								<rect x="278.3" y="331.3" class="st1" width="3.7" height="6.4"/>
							</g>
						</g>
						<g>
							<g>
								<rect x="300" y="207.9" class="st1" width="3.7" height="6.4"/>
							</g>
							<g>
								<rect x="300" y="223.3" class="st1" width="3.7" height="6.4"/>
							</g>
							<g>
								<rect x="300" y="238.8" class="st1" width="3.7" height="6.4"/>
							</g>
							<g>
								<rect x="300" y="254.2" class="st1" width="3.7" height="6.4"/>
							</g>
							<g>
								<rect x="300" y="269.6" class="st1" width="3.7" height="6.4"/>
							</g>
							<g>
								<rect x="300" y="285" class="st1" width="3.7" height="6.4"/>
							</g>
							<g>
								<rect x="300" y="300.4" class="st1" width="3.7" height="6.4"/>
							</g>
							<g>
								<rect x="300" y="315.8" class="st1" width="3.7" height="6.4"/>
							</g>
							<g>
								<rect x="300" y="331.3" class="st1" width="3.7" height="6.4"/>
							</g>
						</g>
						<g>
							<g>
								<rect x="321.7" y="207.9" class="st1" width="3.5" height="6.4"/>
							</g>
							<g>
								<rect x="321.7" y="223.3" class="st1" width="3.5" height="6.4"/>
							</g>
							<g>
								<rect x="321.7" y="238.8" class="st1" width="3.5" height="6.4"/>
							</g>
							<g>
								<rect x="321.7" y="254.2" class="st1" width="3.5" height="6.4"/>
							</g>
							<g>
								<rect x="321.7" y="269.6" class="st1" width="3.5" height="6.4"/>
							</g>
							<g>
								<rect x="321.7" y="285" class="st1" width="3.5" height="6.4"/>
							</g>
							<g>
								<rect x="321.7" y="300.4" class="st1" width="3.5" height="6.4"/>
							</g>
							<g>
								<rect x="321.7" y="315.8" class="st1" width="3.5" height="6.4"/>
							</g>
							<g>
								<rect x="321.7" y="331.3" class="st1" width="3.5" height="6.4"/>
							</g>
						</g>
					</g>
				</g>
			</g>
		</g>
		<rect x="375.2" y="277.6" class="st7" width="91.8" height="144.8"/>
		<g class="st8">
			<g>
				<g>
					<g>
						<rect x="393.6" y="299.1" class="st1" width="11.3" height="21.8"/>
					</g>
					<g>
						<rect x="393.6" y="331.3" class="st1" width="11.3" height="21.8"/>
					</g>
					<g>
						<rect x="393.6" y="363.6" class="st1" width="11.3" height="21.8"/>
					</g>
					<g>
						<rect x="393.6" y="395.9" class="st1" width="11.3" height="21.8"/>
					</g>
				</g>
				<g>
					<g>
						<rect x="416.8" y="299.1" class="st1" width="11.3" height="21.8"/>
					</g>
					<g>
						<rect x="416.8" y="331.3" class="st1" width="11.3" height="21.8"/>
					</g>
					<g>
						<rect x="416.8" y="363.6" class="st1" width="11.3" height="21.8"/>
					</g>
					<g>
						<rect x="416.8" y="395.9" class="st1" width="11.3" height="21.8"/>
					</g>
				</g>
				<g>
					<g>
						<rect x="440.1" y="299.1" class="st1" width="11.3" height="21.8"/>
					</g>
					<g>
						<rect x="440.1" y="331.3" class="st1" width="11.3" height="21.8"/>
					</g>
					<g>
						<rect x="440.1" y="363.6" class="st1" width="11.3" height="21.8"/>
					</g>
					<g>
						<rect x="440.1" y="395.9" class="st1" width="11.3" height="21.8"/>
					</g>
				</g>
			</g>
		</g>
		<polygon class="st7" points="111,307.6 20.8,307.6 20.8,315.5 22.9,315.5 22.9,422.4 108.1,422.4 108.1,315.5 111,315.5 		"/>
		<g class="st8">
			<rect x="38.3" y="336.5" class="st1" width="52.7" height="10"/>
			<rect x="38.3" y="351.3" class="st1" width="52.7" height="10"/>
			<rect x="38.3" y="366.1" class="st1" width="52.7" height="10"/>
			<rect x="38.3" y="380.9" class="st1" width="52.7" height="10"/>
			<rect x="38.3" y="410.6" class="st1" width="52.7" height="10"/>
			<rect x="38.3" y="395.7" class="st1" width="52.7" height="10"/>
			<rect x="35.8" y="335.3" class="st1" width="2.6" height="86.8"/>
			<rect x="89.8" y="335.6" class="st1" width="2.6" height="86.8"/>
		</g>
		<polygon class="st9" points="185.9,402.7 59.6,402.7 59.6,410.6 62.7,410.6 62.7,422.4 181.3,422.4 181.3,410.6 185.9,410.6 		"/>
		<polygon class="st7" points="326.6,356.7 326.6,284.8 245.2,284.8 245.2,356.7 211.7,356.7 211.7,422.4 360.1,422.4 360.1,356.7 
					"/>
		<g class="st8">
			<g>
				<g>
					<rect x="229.2" y="378.1" class="st1" width="113.4" height="15.3"/>
				</g>
				<g>
					<rect x="229.2" y="400.7" class="st1" width="113.4" height="15.3"/>
				</g>
				<g>
					<g>
						<rect x="259.9" y="296.3" class="st1" width="52" height="15.3"/>
					</g>
					<g>
						<rect x="259.9" y="318.9" class="st1" width="52" height="15.3"/>
					</g>
					<g>
						<rect x="259.9" y="341.5" class="st1" width="52" height="15.3"/>
					</g>
				</g>
				<g>
					<rect x="255.9" y="355.1" class="st1" width="60.3" height="3.2"/>
				</g>
				<g>
					<rect x="255.9" y="332.5" class="st1" width="60.3" height="3.2"/>
				</g>
				<g>
					<rect x="255.9" y="309.9" class="st1" width="60.3" height="3.2"/>
				</g>
			</g>
		</g>
		<rect x="311" y="373.8" class="st9" width="69.7" height="48.6"/>
	</g>
	<g>
		<ellipse class="st1" cx="314.1" cy="430.9" rx="71.1" ry="6.2"/>
		<polygon class="st0" points="241.1,218.3 238,220.7 241.1,226.7 243.9,225.1 		"/>
		<linearGradient id="SVGID_3_" gradientUnits="userSpaceOnUse" x1="239.9325" y1="189.464" x2="306.1338" y2="189.464">
			<stop  offset="0" style="stop-color:#13072E"/>
			<stop  offset="0.9967" style="stop-color:#0D185E"/>
		</linearGradient>
		<polygon class="st10" points="298.1,152.2 273.4,202.7 239.9,218.2 243.4,226.7 282.7,217.2 306.1,194 		"/>
		<polygon class="st0" points="320.6,230.8 312.3,148.4 325.5,137.7 344.6,137.7 358.3,162.1 333.4,241.3 		"/>
		<rect x="304.4" y="409.8" class="st11" width="9.3" height="12.8"/>
		<rect x="356.4" y="409.8" class="st11" width="9.3" height="12.8"/>
		<linearGradient id="SVGID_4_" gradientUnits="userSpaceOnUse" x1="297.1139" y1="334.4506" x2="330.5032" y2="334.4506">
			<stop  offset="0" style="stop-color:#1A164A"/>
			<stop  offset="0.9967" style="stop-color:#244C7A"/>
		</linearGradient>
		<polygon class="st12" points="301.6,258.1 297.1,340.1 300.5,419.4 313.7,419.6 330.5,262.2 308.3,249.3 		"/>
		<linearGradient id="SVGID_5_" gradientUnits="userSpaceOnUse" x1="325.4516" y1="330.468" x2="366.181" y2="330.468">
			<stop  offset="0" style="stop-color:#1A164A"/>
			<stop  offset="0.9967" style="stop-color:#244C7A"/>
		</linearGradient>
		<polygon class="st13" points="325.5,263.1 339.6,361.4 354.7,414.7 366.2,413.8 362.9,255.1 332.4,246.3 		"/>
		<linearGradient id="SVGID_6_" gradientUnits="userSpaceOnUse" x1="312.1657" y1="116.926" x2="348.2999" y2="116.926">
			<stop  offset="3.251690e-03" style="stop-color:#FFFFFF"/>
			<stop  offset="1.648135e-02" style="stop-color:#FEFDFC"/>
			<stop  offset="0.2044" style="stop-color:#F5E0DA"/>
			<stop  offset="0.396" style="stop-color:#EDCABF"/>
			<stop  offset="0.5905" style="stop-color:#E8BBAC"/>
			<stop  offset="0.7895" style="stop-color:#E5B1A1"/>
			<stop  offset="1" style="stop-color:#E4AE9D"/>
		</linearGradient>
		<path class="st14" d="M348.3,109.2c0-8.9-7.2-16-16-16c-8.9,0-16,7.2-16,16c0,1.5-0.1,3.3-0.1,5.1l-3.9,6.6
			c-0.2,0.4,0,0.8,0.5,0.8h3.5c0.4,6.4,1.9,11.9,7.2,11.9c0.8,0,1.6-0.1,2.5-0.4l-0.3,4.3l9.9,3.1l8.9-2.1l-0.6-19.2
			C346.6,115.7,348.3,112.1,348.3,109.2z"/>
		<linearGradient id="SVGID_7_" gradientUnits="userSpaceOnUse" x1="311.7" y1="105.674" x2="352.2411" y2="105.674">
			<stop  offset="0" style="stop-color:#1A164A"/>
			<stop  offset="0.9967" style="stop-color:#244C7A"/>
		</linearGradient>
		<path class="st15" d="M343.7,115.5c0.4-1.7-0.2-3.5-1.4-4.8c-0.4-0.5-0.9-0.9-1.4-1.1c-1-0.3-2,0.2-2.7,1c-0.7,0.8-1,1.8-1.3,2.7
			c-1.2-4.3-5.4-8-4.5-12.4c-4.5,1.6-9.5,2.3-13.9,0.6c-4.4-1.8-7.7-6.7-6.5-11.3c1.3,1.6,3.9,1.7,5.8,0.8c1.9-0.9,3.5-2.4,5.2-3.6
			c3.7-2.5,8.6-3.2,12.9-2c4.3,1.2,8,4.4,9.9,8.5c0.2,0.5,0.4,1,0.9,1.4c0.3,0.3,0.7,0.4,1.1,0.6c7.3,3.3,4.2,14.4,1.9,20.2
			c-0.9,2.4-6.2,8.5-5.9,10.4c-0.1-0.7-3.6-7.5-3.5-7.6C341.9,118.5,343.3,117.2,343.7,115.5z"/>
		<linearGradient id="SVGID_8_" gradientUnits="userSpaceOnUse" x1="298.0244" y1="249.2643" x2="363.5621" y2="249.2643">
			<stop  offset="0" style="stop-color:#13072E"/>
			<stop  offset="0.9967" style="stop-color:#0D185E"/>
		</linearGradient>
		<polygon class="st16" points="358.3,230.8 363.6,259.7 328.1,267.7 325.2,259.5 322.1,267.7 298,261.5 304.1,230.8 		"/>
		<linearGradient id="SVGID_9_" gradientUnits="userSpaceOnUse" x1="298.0621" y1="198.7139" x2="376.5621" y2="198.7139">
			<stop  offset="0" style="stop-color:#1A164A"/>
			<stop  offset="0.9967" style="stop-color:#244C7A"/>
		</linearGradient>
		<polygon class="st17" points="376.6,151.2 344.6,137.7 326.9,230.8 326.5,230.8 325.5,137.7 298.1,152.2 304,231.3 298.1,259.7 
			322.1,259.7 326.3,246.3 328.1,259.7 363.6,259.7 358.5,231.9 		"/>
		<linearGradient id="SVGID_10_" gradientUnits="userSpaceOnUse" x1="328.7933" y1="148.4151" x2="340.5621" y2="148.4151">
			<stop  offset="0" style="stop-color:#A32929"/>
			<stop  offset="0.9902" style="stop-color:#782929"/>
		</linearGradient>
		<polygon class="st18" points="335,142.7 328.8,148.4 331.9,154.1 336.7,154.1 340.6,148.4 		"/>
		<linearGradient id="SVGID_11_" gradientUnits="userSpaceOnUse" x1="325.9507" y1="193.4653" x2="337.028" y2="193.4653">
			<stop  offset="0" style="stop-color:#A32929"/>
			<stop  offset="0.9902" style="stop-color:#782929"/>
		</linearGradient>
		<polygon class="st19" points="331.9,154.1 326,180.5 326.6,232.8 337,177.6 336.7,154.1 		"/>
		<linearGradient id="SVGID_12_" gradientUnits="userSpaceOnUse" x1="286.9784" y1="424.6161" x2="316.2585" y2="424.6161">
			<stop  offset="0" style="stop-color:#1A164A"/>
			<stop  offset="0.9967" style="stop-color:#244C7A"/>
		</linearGradient>
		<polygon class="st20" points="303.3,418.8 313.7,418.8 316.3,430.4 287,430.4 303.6,422.4 		"/>
		<linearGradient id="SVGID_13_" gradientUnits="userSpaceOnUse" x1="338.3404" y1="424.6161" x2="367.6205" y2="424.6161">
			<stop  offset="0" style="stop-color:#1A164A"/>
			<stop  offset="0.9967" style="stop-color:#244C7A"/>
		</linearGradient>
		<polygon class="st21" points="356,418.8 365.4,418.8 367.6,430.4 338.3,430.4 355,422.4 		"/>
		<g>
			<linearGradient id="SVGID_14_" gradientUnits="userSpaceOnUse" x1="339.219" y1="305.2293" x2="418.3333" y2="305.2293">
				<stop  offset="0" style="stop-color:#1A164A"/>
				<stop  offset="0.9967" style="stop-color:#244C7A"/>
			</linearGradient>
			<polygon class="st22" points="339.2,283.9 352.8,279.8 416.7,279.8 418.3,320 411.2,330.7 			"/>
			<linearGradient id="SVGID_15_" gradientUnits="userSpaceOnUse" x1="339.219" y1="307.2883" x2="411.2114" y2="307.2883">
				<stop  offset="0" style="stop-color:#13072E"/>
				<stop  offset="0.9967" style="stop-color:#0D185E"/>
			</linearGradient>
			<polygon class="st23" points="411.2,330.7 339.2,329.5 339.2,283.9 411.2,285.1 			"/>
		</g>
		<g>
			<linearGradient id="SVGID_16_" gradientUnits="userSpaceOnUse" x1="364.9102" y1="275.5233" x2="390.2616" y2="275.5233">
				<stop  offset="0" style="stop-color:#13072E"/>
				<stop  offset="0.9967" style="stop-color:#0D185E"/>
			</linearGradient>
			<polygon class="st24" points="368.2,282.4 372.3,272 382.4,272 386.9,282.4 390.3,282.4 384.3,268.6 370.4,268.6 364.9,282.4 			
				"/>
		</g>
		<linearGradient id="SVGID_17_" gradientUnits="userSpaceOnUse" x1="368.5144" y1="268.7828" x2="383.3333" y2="268.7828">
			<stop  offset="0" style="stop-color:#E4AE9D"/>
			<stop  offset="0.2003" style="stop-color:#E5B1A1"/>
			<stop  offset="0.4023" style="stop-color:#E8BBAD"/>
			<stop  offset="0.6052" style="stop-color:#EECCC1"/>
			<stop  offset="0.8074" style="stop-color:#F6E3DD"/>
			<stop  offset="0.9967" style="stop-color:#FFFFFF"/>
		</linearGradient>
		<polygon class="st25" points="372.4,261.5 368.5,267.9 372.4,271 372.4,274.8 380.3,276 383.3,268.8 380.8,263.3 		"/>
		<polygon class="st0" points="373,256.1 371.3,262.7 381.7,264.7 381.7,256.1 		"/>
		<linearGradient id="SVGID_18_" gradientUnits="userSpaceOnUse" x1="366.181" y1="206.964" x2="389" y2="206.964">
			<stop  offset="0" style="stop-color:#1A164A"/>
			<stop  offset="0.9967" style="stop-color:#244C7A"/>
		</linearGradient>
		<polygon class="st26" points="376.6,151.2 389,216.7 382.3,262.7 371,258.7 373,216.7 366.2,197.5 		"/>
		<path class="st27" d="M325.6,133.4l11.4-5.2c0,0-4.9,11.3-8.2,10.4c-3.3-0.9-3.3-0.9-3.3-0.9L325.6,133.4z"/>
		<linearGradient id="SVGID_19_" gradientUnits="userSpaceOnUse" x1="339.219" y1="310.5328" x2="411.2114" y2="310.5328">
			<stop  offset="0" style="stop-color:#1A164A"/>
			<stop  offset="0.9967" style="stop-color:#244C7A"/>
		</linearGradient>
		<polygon class="st28" points="339.2,308.5 411.2,308.5 411.2,312.5 339.2,310.5 		"/>
		<linearGradient id="SVGID_20_" gradientUnits="userSpaceOnUse" x1="369.75" y1="303.3811" x2="381.6667" y2="303.3811">
			<stop  offset="0" style="stop-color:#1A164A"/>
			<stop  offset="0.9967" style="stop-color:#244C7A"/>
		</linearGradient>
		<rect x="369.8" y="301.5" class="st29" width="11.9" height="3.7"/>
		<linearGradient id="SVGID_21_" gradientUnits="userSpaceOnUse" x1="366.181" y1="193.4704" x2="373" y2="193.4704">
			<stop  offset="0" style="stop-color:#13072E"/>
			<stop  offset="0.9967" style="stop-color:#0D185E"/>
		</linearGradient>
		<path class="st30" d="M366.2,197.5c0,0,5.9-28.7,5.8-27.2c0,1.5,1,46.4,1,46.4L366.2,197.5z"/>
	</g>
	<g>
		<ellipse class="st1" cx="181.3" cy="430.9" rx="69" ry="6.2"/>
		<g>
			<linearGradient id="SVGID_22_" gradientUnits="userSpaceOnUse" x1="184.2749" y1="268.4115" x2="199.102" y2="268.4115">
				<stop  offset="0" style="stop-color:#E4AE9D"/>
				<stop  offset="0.2003" style="stop-color:#E5B1A1"/>
				<stop  offset="0.4023" style="stop-color:#E8BBAD"/>
				<stop  offset="0.6052" style="stop-color:#EECCC1"/>
				<stop  offset="0.8074" style="stop-color:#F6E3DD"/>
				<stop  offset="0.9967" style="stop-color:#FFFFFF"/>
			</linearGradient>
			<polygon class="st31" points="188.1,261.2 184.3,267.6 188.2,270.6 188.3,274.4 196.1,275.6 199.1,268.3 196.5,262.9 			"/>
			<polygon class="st0" points="188.6,255.8 187,262.4 197.4,264.3 197.3,255.7 			"/>
			<linearGradient id="SVGID_23_" gradientUnits="userSpaceOnUse" x1="181.2259" y1="206.5645" x2="204.2391" y2="206.5645">
				<stop  offset="0" style="stop-color:#1A164A"/>
				<stop  offset="0.9967" style="stop-color:#244C7A"/>
			</linearGradient>
			<polygon class="st32" points="191.1,150.8 204.2,216.2 198,262.3 186.7,258.4 188.2,216.4 181.2,197.2 			"/>
		</g>
		<g>
			
				<rect x="181.8" y="411.4" transform="matrix(-0.9971 -7.569264e-02 7.569264e-02 -0.9971 340.7615 848.463)" class="st11" width="9.3" height="12.7"/>
			<linearGradient id="SVGID_24_" gradientUnits="userSpaceOnUse" x1="158.866" y1="330.3883" x2="195.6871" y2="330.3883">
				<stop  offset="0" style="stop-color:#1A164A"/>
				<stop  offset="0.9967" style="stop-color:#244C7A"/>
			</linearGradient>
			<polygon class="st33" points="191.9,252.9 195.7,354.8 194.8,415.1 180.9,415.6 158.9,258.4 180.8,245.2 			"/>
			<linearGradient id="SVGID_25_" gradientUnits="userSpaceOnUse" x1="180.0462" y1="424.7393" x2="209.212" y2="424.7393">
				<stop  offset="0" style="stop-color:#1A164A"/>
				<stop  offset="0.9967" style="stop-color:#244C7A"/>
			</linearGradient>
			<polygon class="st34" points="191.9,418.4 181.6,419.3 180,431.1 209.2,429.5 191.9,422 			"/>
		</g>
		<polygon class="st0" points="169.7,230.8 178,148.4 164.9,137.7 145.7,137.7 132,162.1 156.9,241.3 		"/>
		<linearGradient id="SVGID_26_" gradientUnits="userSpaceOnUse" x1="149.7614" y1="148.4151" x2="161.5302" y2="148.4151">
			<stop  offset="0" style="stop-color:#A32929"/>
			<stop  offset="0.9902" style="stop-color:#782929"/>
		</linearGradient>
		<polygon class="st35" points="155.3,142.7 161.5,148.4 158.4,154.1 153.7,154.1 149.8,148.4 		"/>
		<linearGradient id="SVGID_27_" gradientUnits="userSpaceOnUse" x1="153.2955" y1="193.4653" x2="164.3728" y2="193.4653">
			<stop  offset="0" style="stop-color:#A32929"/>
			<stop  offset="0.9902" style="stop-color:#782929"/>
		</linearGradient>
		<polygon class="st36" points="158.4,154.1 164.4,180.5 163.8,232.8 153.3,177.6 153.7,154.1 		"/>
		
			<rect x="139.3" y="410.4" transform="matrix(-0.9975 7.014697e-02 -7.014697e-02 -0.9975 316.8029 822.4784)" class="st11" width="9.3" height="12.8"/>
		<linearGradient id="SVGID_28_" gradientUnits="userSpaceOnUse" x1="130.7851" y1="330.0945" x2="168.7377" y2="330.0945">
			<stop  offset="0" style="stop-color:#1A164A"/>
			<stop  offset="0.9967" style="stop-color:#244C7A"/>
		</linearGradient>
		<polygon class="st37" points="168.7,261.6 161.6,360.7 150.2,414.9 138.7,414.8 130.8,256.3 160.6,245.3 		"/>
		<linearGradient id="SVGID_29_" gradientUnits="userSpaceOnUse" x1="142.0236" y1="116.926" x2="178.1578" y2="116.926">
			<stop  offset="0" style="stop-color:#E4AE9D"/>
			<stop  offset="0.2003" style="stop-color:#E5B1A1"/>
			<stop  offset="0.4023" style="stop-color:#E8BBAD"/>
			<stop  offset="0.6052" style="stop-color:#EECCC1"/>
			<stop  offset="0.8074" style="stop-color:#F6E3DD"/>
			<stop  offset="0.9967" style="stop-color:#FFFFFF"/>
		</linearGradient>
		<path class="st38" d="M178.1,120.9l-3.9-6.6c0-1.8-0.1-3.6-0.1-5.1c0-8.9-7.2-16-16-16c-8.9,0-16,7.2-16,16
			c0,2.9,1.7,6.6,4.4,10.1l-0.6,19.2l12.3,2.1l6.6-3.1l-0.3-4.3c0.9,0.2,1.7,0.4,2.5,0.4c5.3,0,6.8-5.6,7.2-11.9h3.5
			C178,121.7,178.3,121.3,178.1,120.9z"/>
		<linearGradient id="SVGID_30_" gradientUnits="userSpaceOnUse" x1="138.0824" y1="107.5195" x2="175.2024" y2="107.5195">
			<stop  offset="0" style="stop-color:#96942D"/>
			<stop  offset="0.9902" style="stop-color:#B5B47B"/>
		</linearGradient>
		<path class="st39" d="M146.7,115.5c-0.4-1.7,0.2-3.5,1.4-4.8c0.4-0.5,0.9-0.9,1.4-1.1c1-0.3,2,0.2,2.7,1c0.7,0.8,1,1.8,1.3,2.7
			c1.2-4.3,5.4-8,4.5-12.4c3.2,1.2,9,3,12.4,2.4c4.2-0.7,6.1-6,4-9.4c-1.5-2.4-4.4-3.5-7.1-4.1c-6.5-1.5-19.3-3-22.6,4.2
			c-0.2,0.5-0.4,1-0.9,1.4c-0.3,0.3-0.7,0.4-1.1,0.6c-7.3,3.3-4.2,14.4-1.9,20.2c0.9,2.4,6.2,8.5,5.9,10.4c0.1-0.7,3.6-7.5,3.5-7.6
			C148.4,118.5,147,117.2,146.7,115.5z"/>
		<linearGradient id="SVGID_31_" gradientUnits="userSpaceOnUse" x1="126.7614" y1="248.7643" x2="192.2991" y2="248.7643">
			<stop  offset="0" style="stop-color:#13072E"/>
			<stop  offset="0.9967" style="stop-color:#0D185E"/>
		</linearGradient>
		<polygon class="st40" points="132.1,229.8 126.8,259.7 162.2,267.7 165.1,259.5 168.3,267.7 192.3,261.5 186.3,230.8 		"/>
		<linearGradient id="SVGID_32_" gradientUnits="userSpaceOnUse" x1="116.1068" y1="198.7139" x2="192.2614" y2="198.7139">
			<stop  offset="0" style="stop-color:#1A164A"/>
			<stop  offset="0.9967" style="stop-color:#244C7A"/>
		</linearGradient>
		<path class="st41" d="M192.3,152.2l-27.4-14.5l-1.1,92.7l-0.5,0l-17.6-92.7l-20.6,8.7c-6.6,2.8-10.3,9.9-8.7,16.9l15.4,67.7
			l-5.1,28.8h35.4l1.8-13.4l4.3,13.4h24l-5.9-28.4L192.3,152.2z"/>
		<linearGradient id="SVGID_33_" gradientUnits="userSpaceOnUse" x1="118.2706" y1="186.4858" x2="145.8076" y2="186.4858">
			<stop  offset="0" style="stop-color:#13072E"/>
			<stop  offset="0.9967" style="stop-color:#0D185E"/>
		</linearGradient>
		<polygon class="st42" points="118.3,171.2 121.9,187.3 145.8,201.8 		"/>
		<linearGradient id="SVGID_34_" gradientUnits="userSpaceOnUse" x1="135.7614" y1="185.2643" x2="163.7614" y2="185.2643">
			<stop  offset="0" style="stop-color:#13072E"/>
			<stop  offset="0.9967" style="stop-color:#0D185E"/>
		</linearGradient>
		<polygon class="st43" points="145.7,137.7 135.8,156.7 145.7,165.7 140.7,177.7 163.8,232.8 		"/>
		<linearGradient id="SVGID_35_" gradientUnits="userSpaceOnUse" x1="163.7614" y1="185.2643" x2="175.6568" y2="185.2643">
			<stop  offset="0" style="stop-color:#13072E"/>
			<stop  offset="0.9967" style="stop-color:#0D185E"/>
		</linearGradient>
		<polygon class="st44" points="164.9,137.7 173.7,154.7 169.2,163 175.7,176.4 163.8,232.8 		"/>
		<path class="st27" d="M164.7,133.4l-11.4-5.2c0,0,4.9,11.3,8.2,10.4c3.3-0.9,3.3-0.9,3.3-0.9L164.7,133.4z"/>
		<linearGradient id="SVGID_36_" gradientUnits="userSpaceOnUse" x1="224.875" y1="225.5487" x2="242" y2="225.5487">
			<stop  offset="0" style="stop-color:#E4AE9D"/>
			<stop  offset="0.2003" style="stop-color:#E5B1A1"/>
			<stop  offset="0.4023" style="stop-color:#E8BBAD"/>
			<stop  offset="0.6052" style="stop-color:#EECCC1"/>
			<stop  offset="0.8074" style="stop-color:#F6E3DD"/>
			<stop  offset="0.9967" style="stop-color:#FFFFFF"/>
		</linearGradient>
		<polygon class="st45" points="239.2,221 232.9,218.3 229.2,222.5 224.9,226.2 231.4,232.8 239.2,229.9 242,225.5 		"/>
		<linearGradient id="SVGID_37_" gradientUnits="userSpaceOnUse" x1="137.1213" y1="424.6161" x2="166.4015" y2="424.6161">
			<stop  offset="0" style="stop-color:#1A164A"/>
			<stop  offset="0.9967" style="stop-color:#244C7A"/>
		</linearGradient>
		<polygon class="st46" points="150.1,418.8 139.7,418.8 137.1,430.4 166.4,430.4 149.8,422.4 		"/>
		<g>
			<linearGradient id="SVGID_38_" gradientUnits="userSpaceOnUse" x1="223.2277" y1="226.1398" x2="240.3527" y2="226.1398">
				<stop  offset="0" style="stop-color:#E4AE9D"/>
				<stop  offset="0.2003" style="stop-color:#E5B1A1"/>
				<stop  offset="0.4023" style="stop-color:#E8BBAD"/>
				<stop  offset="0.6052" style="stop-color:#EECCC1"/>
				<stop  offset="0.8074" style="stop-color:#F6E3DD"/>
				<stop  offset="0.9967" style="stop-color:#FFFFFF"/>
			</linearGradient>
			<polygon class="st47" points="226,221.6 232.4,218.9 236,223.1 240.4,226.7 233.9,233.4 226,230.5 223.2,226.1 			"/>
			<polygon class="st0" points="224.1,218.9 227.2,221.3 224.1,227.3 221.3,225.7 			"/>
			<linearGradient id="SVGID_39_" gradientUnits="userSpaceOnUse" x1="114.3794" y1="187.3308" x2="225.2952" y2="187.3308">
				<stop  offset="0" style="stop-color:#1A164A"/>
				<stop  offset="0.9967" style="stop-color:#244C7A"/>
			</linearGradient>
			<path class="st48" d="M117.3,150.5c3.1-3.7,8.1-4.7,12.3-0.4c11.4,11.7,22.7,26.8,35.7,36.4c6.1,4.5,14,7.5,20.6,11.1
				c13.1,7.1,26.3,14.1,39.4,21.2c0,0-3.4,8.5-3.4,8.5c-0.3,0.6-27.4-6.6-29.3-7.1c-15.8-3.8-28.8-7.3-42.8-16
				c-6-3.7-11.9-7.5-17.1-12.3c-8-7.5-14.1-18-17.4-28.4c-0.6-1.8-1.1-3.6-1-5.5C114.6,155.1,115.7,152.5,117.3,150.5z"/>
		</g>
	</g>
	<linearGradient id="SVGID_40_" gradientUnits="userSpaceOnUse" x1="326.5621" y1="185.2643" x2="354.5621" y2="185.2643">
		<stop  offset="0" style="stop-color:#13072E"/>
		<stop  offset="0.9967" style="stop-color:#0D185E"/>
	</linearGradient>
	<polygon class="st49" points="344.6,137.7 354.6,156.7 344.6,165.7 349.6,177.7 326.6,232.8 	"/>
	<linearGradient id="SVGID_41_" gradientUnits="userSpaceOnUse" x1="314.6667" y1="185.2643" x2="326.5621" y2="185.2643">
		<stop  offset="0" style="stop-color:#13072E"/>
		<stop  offset="0.9967" style="stop-color:#0D185E"/>
	</linearGradient>
	<polygon class="st50" points="325.5,137.7 316.7,154.7 321.1,163 314.7,176.4 326.6,232.8 	"/>
</g>
<g id="DESIGNED_BY_FREEPIK">
</g>
</svg>
